<?xml version="1.0" encoding="UTF-8" standalone="no"?>
<!DOCTYPE svg PUBLIC "-//W3C//DTD SVG 1.1//EN"
 "http://www.w3.org/Graphics/SVG/1.1/DTD/svg11.dtd">
<!-- Generated by graphviz version 2.40.1 (20161225.0304)
 -->
<!-- Title: %0 Pages: 1 -->
<svg width="1254pt" height="355pt"
 viewBox="0.00 0.00 1254.00 355.00" xmlns="http://www.w3.org/2000/svg" xmlns:xlink="http://www.w3.org/1999/xlink">
<g id="graph0" class="graph" transform="scale(1 1) rotate(0) translate(4 351)">
<title>%0</title>
<polygon fill="#ffffff" stroke="transparent" points="-4,4 -4,-351 1250,-351 1250,4 -4,4"/>
<!-- TILE1_OUTLUT_4 -->
<g id="node1" class="node">
<title>TILE1_OUTLUT_4</title>
<polygon fill="none" stroke="#00ff00" points="839.5,-158 839.5,-180 855.5,-180 855.5,-158 839.5,-158"/>
<text text-anchor="start" x="842.0554" y="-164.4" font-family="Helvetica,sans-Serif" font-size="14.00" fill="#000000">i0</text>
<polygon fill="none" stroke="#00ff00" points="855.5,-114 855.5,-180 977.5,-180 977.5,-114 855.5,-114"/>
<text text-anchor="start" x="858.1578" y="-156.4" font-family="Helvetica,sans-Serif" font-weight="bold" font-size="14.00" fill="#000000">TILE1_OUTLUT_4</text>
<text text-anchor="start" x="893.3496" y="-128.4" font-family="Helvetica,sans-Serif" font-size="14.00" fill="#000000">out = i0</text>
<polygon fill="none" stroke="#00ff00" points="839.5,-136 839.5,-158 855.5,-158 855.5,-136 839.5,-136"/>
<text text-anchor="start" x="842.0554" y="-142.4" font-family="Helvetica,sans-Serif" font-size="14.00" fill="#000000">i1</text>
<polygon fill="none" stroke="#00ff00" points="977.5,-136 977.5,-158 1002.5,-158 1002.5,-136 977.5,-136"/>
<text text-anchor="start" x="980.2721" y="-142.4" font-family="Helvetica,sans-Serif" font-size="14.00" fill="#000000">out</text>
<polygon fill="none" stroke="#00ff00" points="839.5,-114 839.5,-136 855.5,-136 855.5,-114 839.5,-114"/>
<text text-anchor="start" x="842.0554" y="-120.4" font-family="Helvetica,sans-Serif" font-size="14.00" fill="#000000">i2</text>
</g>
<!-- TILE1_BOUNDARY_OUT -->
<g id="node2" class="node">
<title>TILE1_BOUNDARY_OUT</title>
<polygon fill="none" stroke="#000000" points="1108,-202 1108,-224 1238,-224 1238,-202 1108,-202"/>
<text text-anchor="start" x="1110.7728" y="-209.4" font-family="Helvetica,sans-Serif" font-weight="bold" font-size="14.00" fill="#000000">TILE1_BOUNDARY</text>
<polygon fill="none" stroke="#000000" points="1108,-180 1108,-202 1238,-202 1238,-180 1108,-180"/>
<text text-anchor="start" x="1159.3808" y="-186.4" font-family="Helvetica,sans-Serif" font-size="14.00" fill="#000000">out0</text>
<polygon fill="none" stroke="#000000" points="1108,-158 1108,-180 1238,-180 1238,-158 1108,-158"/>
<text text-anchor="start" x="1159.3808" y="-164.4" font-family="Helvetica,sans-Serif" font-size="14.00" fill="#000000">out1</text>
<polygon fill="none" stroke="#000000" points="1108,-136 1108,-158 1238,-158 1238,-136 1108,-136"/>
<text text-anchor="start" x="1159.3808" y="-142.4" font-family="Helvetica,sans-Serif" font-size="14.00" fill="#000000">out2</text>
<polygon fill="none" stroke="#000000" points="1108,-114 1108,-136 1238,-136 1238,-114 1108,-114"/>
<text text-anchor="start" x="1159.3808" y="-120.4" font-family="Helvetica,sans-Serif" font-size="14.00" fill="#000000">out3</text>
<polygon fill="none" stroke="#000000" points="1108,-92 1108,-114 1238,-114 1238,-92 1108,-92"/>
<text text-anchor="start" x="1159.3808" y="-98.4" font-family="Helvetica,sans-Serif" font-size="14.00" fill="#000000">out4</text>
<polygon fill="none" stroke="#000000" points="1108,-70 1108,-92 1238,-92 1238,-70 1108,-70"/>
<text text-anchor="start" x="1159.3808" y="-76.4" font-family="Helvetica,sans-Serif" font-size="14.00" fill="#000000">out5</text>
<polygon fill="none" stroke="#000000" points="1108,-48 1108,-70 1238,-70 1238,-48 1108,-48"/>
<text text-anchor="start" x="1159.3808" y="-54.4" font-family="Helvetica,sans-Serif" font-size="14.00" fill="#000000">out6</text>
<polygon fill="none" stroke="#000000" points="1108,-26 1108,-48 1238,-48 1238,-26 1108,-26"/>
<text text-anchor="start" x="1159.3808" y="-32.4" font-family="Helvetica,sans-Serif" font-size="14.00" fill="#000000">out7</text>
</g>
<!-- TILE1_OUTLUT_4&#45;&gt;TILE1_BOUNDARY_OUT -->
<g id="edge1" class="edge">
<title>TILE1_OUTLUT_4:e&#45;&gt;TILE1_BOUNDARY_OUT:w</title>
<path fill="none" stroke="#000000" d="M1002.5,-147C1049.7313,-147 1056.4172,-108.97 1097.9468,-103.622"/>
<polygon fill="#000000" stroke="#000000" points="1098.2353,-107.1109 1108,-103 1097.8029,-100.1243 1098.2353,-107.1109"/>
</g>
<!-- TILE1_COUNTER_0 -->
<g id="node3" class="node">
<title>TILE1_COUNTER_0</title>
<polygon fill="none" stroke="#0000ff" points="244,-131 244,-153 292,-153 292,-131 244,-131"/>
<text text-anchor="start" x="252.4418" y="-137.4" font-family="Helvetica,sans-Serif" font-size="14.00" fill="#000000">reset</text>
<polygon fill="none" stroke="#0000ff" points="292,-65 292,-153 427,-153 427,-65 292,-65"/>
<text text-anchor="start" x="294.5505" y="-118.4" font-family="Helvetica,sans-Serif" font-weight="bold" font-size="14.00" fill="#000000">TILE1_COUNTER_0</text>
<text text-anchor="start" x="307.9541" y="-90.4" font-family="Helvetica,sans-Serif" font-size="14.00" fill="#000000">evAction = None</text>
<polygon fill="none" stroke="#0000ff" points="427,-131 427,-153 478,-153 478,-131 427,-131"/>
<text text-anchor="start" x="438.8871" y="-137.4" font-family="Helvetica,sans-Serif" font-size="14.00" fill="#000000">zero</text>
<polygon fill="none" stroke="#0000ff" points="244,-109 244,-131 292,-131 292,-109 244,-109"/>
<text text-anchor="start" x="250.8808" y="-115.4" font-family="Helvetica,sans-Serif" font-size="14.00" fill="#000000">event</text>
<polygon fill="none" stroke="#0000ff" points="427,-109 427,-131 478,-131 478,-109 427,-109"/>
<text text-anchor="start" x="429.5505" y="-115.4" font-family="Helvetica,sans-Serif" font-size="14.00" fill="#000000">match1</text>
<polygon fill="none" stroke="#0000ff" points="244,-87 244,-109 292,-109 292,-87 244,-87"/>
<text text-anchor="start" x="246.6045" y="-93.4" font-family="Helvetica,sans-Serif" font-size="14.00" fill="#000000">mode0</text>
<polygon fill="none" stroke="#0000ff" points="427,-87 427,-109 478,-109 478,-87 427,-87"/>
<text text-anchor="start" x="429.5505" y="-93.4" font-family="Helvetica,sans-Serif" font-size="14.00" fill="#000000">match2</text>
<polygon fill="none" stroke="#0000ff" points="244,-65 244,-87 292,-87 292,-65 244,-65"/>
<text text-anchor="start" x="246.6045" y="-71.4" font-family="Helvetica,sans-Serif" font-size="14.00" fill="#000000">mode1</text>
</g>
<!-- TILE1_COUNTER_0&#45;&gt;TILE1_OUTLUT_4 -->
<g id="edge2" class="edge">
<title>TILE1_COUNTER_0:e&#45;&gt;TILE1_OUTLUT_4:w</title>
<path fill="none" stroke="#00ff00" d="M478,-120C636.6525,-120 675.7068,-166.9171 829.2203,-168.9331"/>
<polygon fill="#00ff00" stroke="#00ff00" points="829.4774,-172.4348 839.5,-169 829.523,-165.4349 829.4774,-172.4348"/>
</g>
<!-- TILE1_COUNTER_0&#45;&gt;TILE1_COUNTER_0 -->
<g id="edge6" class="edge">
<title>TILE1_COUNTER_0:e&#45;&gt;TILE1_COUNTER_0:w</title>
<path fill="none" stroke="#0000ff" d="M478,-120C550,-148 550,-193 361,-193 180.8594,-193 172.4153,-171.1973 234.3617,-145.7749"/>
<polygon fill="#0000ff" stroke="#0000ff" points="235.9651,-148.9059 244,-142 233.4123,-142.388 235.9651,-148.9059"/>
</g>
<!-- TILE1_FSM_0 -->
<g id="node5" class="node">
<title>TILE1_FSM_0</title>
<polygon fill="none" stroke="#ff0000" points="584.5,-74 584.5,-96 612.5,-96 612.5,-74 584.5,-74"/>
<text text-anchor="start" x="590.7174" y="-80.4" font-family="Helvetica,sans-Serif" font-size="14.00" fill="#000000">e0</text>
<polygon fill="none" stroke="#ff0000" points="612.5,-8 612.5,-96 708.5,-96 708.5,-8 612.5,-8"/>
<text text-anchor="start" x="615.3787" y="-68.4" font-family="Helvetica,sans-Serif" font-weight="bold" font-size="14.00" fill="#000000">TILE1_FSM_0</text>
<text text-anchor="start" x="618.1234" y="-40.4" font-family="Helvetica,sans-Serif" font-size="14.00" fill="#000000">s0 = (s0 ^e0) </text>
<polygon fill="none" stroke="#ff0000" points="584.5,-52 584.5,-74 612.5,-74 612.5,-52 584.5,-52"/>
<text text-anchor="start" x="590.7174" y="-58.4" font-family="Helvetica,sans-Serif" font-size="14.00" fill="#000000">e1</text>
<polygon fill="none" stroke="#ff0000" points="708.5,-52 708.5,-74 733.5,-74 733.5,-52 708.5,-52"/>
<text text-anchor="start" x="713.6087" y="-58.4" font-family="Helvetica,sans-Serif" font-size="14.00" fill="#000000">s0</text>
<polygon fill="none" stroke="#ff0000" points="584.5,-30 584.5,-52 612.5,-52 612.5,-30 584.5,-30"/>
<text text-anchor="start" x="587.2174" y="-36.4" font-family="Helvetica,sans-Serif" font-size="14.00" fill="#000000">xe0</text>
<polygon fill="none" stroke="#ff0000" points="708.5,-30 708.5,-52 733.5,-52 733.5,-30 708.5,-30"/>
<text text-anchor="start" x="713.6087" y="-36.4" font-family="Helvetica,sans-Serif" font-size="14.00" fill="#000000">s1</text>
<polygon fill="none" stroke="#ff0000" points="584.5,-8 584.5,-30 612.5,-30 612.5,-8 584.5,-8"/>
<text text-anchor="start" x="587.2174" y="-14.4" font-family="Helvetica,sans-Serif" font-size="14.00" fill="#000000">xe1</text>
<polygon fill="none" stroke="#ff0000" points="708.5,-8 708.5,-30 733.5,-30 733.5,-8 708.5,-8"/>
<text text-anchor="start" x="711.2721" y="-14.4" font-family="Helvetica,sans-Serif" font-size="14.00" fill="#000000">out</text>
</g>
<!-- TILE1_COUNTER_0&#45;&gt;TILE1_FSM_0 -->
<g id="edge5" class="edge">
<title>TILE1_COUNTER_0:e&#45;&gt;TILE1_FSM_0:w</title>
<path fill="none" stroke="#ff0000" d="M478,-120C524.2233,-120 533.4613,-89.8758 574.3391,-85.5219"/>
<polygon fill="#ff0000" stroke="#ff0000" points="574.6927,-89.0085 584.5,-85 574.3336,-82.0177 574.6927,-89.0085"/>
</g>
<!-- TILE1_OUTLUT_5 -->
<g id="node4" class="node">
<title>TILE1_OUTLUT_5</title>
<polygon fill="none" stroke="#00ff00" points="839.5,-48 839.5,-70 855.5,-70 855.5,-48 839.5,-48"/>
<text text-anchor="start" x="842.0554" y="-54.4" font-family="Helvetica,sans-Serif" font-size="14.00" fill="#000000">i0</text>
<polygon fill="none" stroke="#00ff00" points="855.5,-4 855.5,-70 977.5,-70 977.5,-4 855.5,-4"/>
<text text-anchor="start" x="858.1578" y="-46.4" font-family="Helvetica,sans-Serif" font-weight="bold" font-size="14.00" fill="#000000">TILE1_OUTLUT_5</text>
<text text-anchor="start" x="893.3496" y="-18.4" font-family="Helvetica,sans-Serif" font-size="14.00" fill="#000000">out = i0</text>
<polygon fill="none" stroke="#00ff00" points="839.5,-26 839.5,-48 855.5,-48 855.5,-26 839.5,-26"/>
<text text-anchor="start" x="842.0554" y="-32.4" font-family="Helvetica,sans-Serif" font-size="14.00" fill="#000000">i1</text>
<polygon fill="none" stroke="#00ff00" points="977.5,-26 977.5,-48 1002.5,-48 1002.5,-26 977.5,-26"/>
<text text-anchor="start" x="980.2721" y="-32.4" font-family="Helvetica,sans-Serif" font-size="14.00" fill="#000000">out</text>
<polygon fill="none" stroke="#00ff00" points="839.5,-4 839.5,-26 855.5,-26 855.5,-4 839.5,-4"/>
<text text-anchor="start" x="842.0554" y="-10.4" font-family="Helvetica,sans-Serif" font-size="14.00" fill="#000000">i2</text>
</g>
<!-- TILE1_OUTLUT_5&#45;&gt;TILE1_BOUNDARY_OUT -->
<g id="edge3" class="edge">
<title>TILE1_OUTLUT_5:e&#45;&gt;TILE1_BOUNDARY_OUT:w</title>
<path fill="none" stroke="#000000" d="M1002.5,-37C1049.7313,-37 1056.4172,-75.03 1097.9468,-80.378"/>
<polygon fill="#000000" stroke="#000000" points="1097.8029,-83.8757 1108,-81 1098.2353,-76.8891 1097.8029,-83.8757"/>
</g>
<!-- TILE1_FSM_0&#45;&gt;TILE1_OUTLUT_5 -->
<g id="edge4" class="edge">
<title>TILE1_FSM_0:e&#45;&gt;TILE1_OUTLUT_5:w</title>
<path fill="none" stroke="#00ff00" d="M733.5,-63C776.9615,-63 790.3093,-59.6006 829.0655,-59.0694"/>
<polygon fill="#00ff00" stroke="#00ff00" points="829.5235,-62.5666 839.5,-59 829.4769,-55.5667 829.5235,-62.5666"/>
</g>
<!-- 1 -->
<g id="node6" class="node">
<title>1</title>
<ellipse fill="none" stroke="#000000" cx="73" cy="-87" rx="27" ry="18"/>
<text text-anchor="middle" x="73" y="-82.8" font-family="Helvetica,sans-Serif" font-size="14.00" fill="#000000">1</text>
</g>
<!-- 1&#45;&gt;TILE1_COUNTER_0 -->
<g id="edge7" class="edge">
<title>1&#45;&gt;TILE1_COUNTER_0:w</title>
<path fill="none" stroke="#0000ff" d="M99.9171,-89.8042C131.3402,-92.8468 185.2045,-97.3517 233.7351,-97.9366"/>
<polygon fill="#0000ff" stroke="#0000ff" points="233.9785,-101.4381 244,-98 234.0218,-94.4382 233.9785,-101.4381"/>
</g>
<!-- 1&#45;&gt;TILE1_COUNTER_0 -->
<g id="edge8" class="edge">
<title>1&#45;&gt;TILE1_COUNTER_0:w</title>
<path fill="none" stroke="#0000ff" d="M99.9171,-84.1958C131.3402,-81.1532 185.2045,-76.6483 233.7351,-76.0634"/>
<polygon fill="#0000ff" stroke="#0000ff" points="234.0218,-79.5618 244,-76 233.9785,-72.5619 234.0218,-79.5618"/>
</g>
<!-- TILE1_BOUNDARY -->
<g id="node7" class="node">
<title>TILE1_BOUNDARY</title>
<polygon fill="none" stroke="#000000" points="8,-321 8,-343 138,-343 138,-321 8,-321"/>
<text text-anchor="start" x="10.7728" y="-328.4" font-family="Helvetica,sans-Serif" font-weight="bold" font-size="14.00" fill="#000000">TILE1_BOUNDARY</text>
<polygon fill="none" stroke="#000000" points="8,-299 8,-321 138,-321 138,-299 8,-299"/>
<text text-anchor="start" x="53.9376" y="-305.4" font-family="Helvetica,sans-Serif" font-size="14.00" fill="#000000">in0 &#160;→</text>
<polygon fill="none" stroke="#000000" points="8,-277 8,-299 138,-299 138,-277 8,-277"/>
<text text-anchor="start" x="53.9376" y="-283.4" font-family="Helvetica,sans-Serif" font-size="14.00" fill="#000000">in1 &#160;→</text>
<polygon fill="none" stroke="#000000" points="8,-255 8,-277 138,-277 138,-255 8,-255"/>
<text text-anchor="start" x="53.9376" y="-261.4" font-family="Helvetica,sans-Serif" font-size="14.00" fill="#000000">in2 &#160;→</text>
<polygon fill="none" stroke="#000000" points="8,-233 8,-255 138,-255 138,-233 8,-233"/>
<text text-anchor="start" x="53.9376" y="-239.4" font-family="Helvetica,sans-Serif" font-size="14.00" fill="#000000">in3 &#160;→</text>
<polygon fill="none" stroke="#000000" points="8,-211 8,-233 138,-233 138,-211 8,-211"/>
<text text-anchor="start" x="53.9376" y="-217.4" font-family="Helvetica,sans-Serif" font-size="14.00" fill="#000000">in4 &#160;→</text>
<polygon fill="none" stroke="#000000" points="8,-189 8,-211 138,-211 138,-189 8,-189"/>
<text text-anchor="start" x="53.9376" y="-195.4" font-family="Helvetica,sans-Serif" font-size="14.00" fill="#000000">in5 &#160;→</text>
<polygon fill="none" stroke="#000000" points="8,-167 8,-189 138,-189 138,-167 8,-167"/>
<text text-anchor="start" x="53.9376" y="-173.4" font-family="Helvetica,sans-Serif" font-size="14.00" fill="#000000">in6 &#160;→</text>
<polygon fill="none" stroke="#000000" points="8,-145 8,-167 138,-167 138,-145 8,-145"/>
<text text-anchor="start" x="53.9376" y="-151.4" font-family="Helvetica,sans-Serif" font-size="14.00" fill="#000000">in7 &#160;→</text>
</g>
</g>
</svg>
